<svg width="462" height="26" viewBox="0 0 462 26" fill="none" xmlns="http://www.w3.org/2000/svg">
<path d="M159 0L162.439 8.26725L171.364 8.98278L164.564 14.8077L166.641 23.5172L159 18.85L151.359 23.5172L153.436 14.8077L146.636 8.98278L155.561 8.26725L159 0Z" fill="#F1C644"/>
<path d="M159 0L162.439 8.26725L171.364 8.98278L164.564 14.8077L166.641 23.5172L159 18.85L151.359 23.5172L153.436 14.8077L146.636 8.98278L155.561 8.26725L159 0Z" stroke="#F1C644"/>
<path d="M195 0L198.439 8.26725L207.364 8.98278L200.564 14.8077L202.641 23.5172L195 18.85L187.359 23.5172L189.436 14.8077L182.636 8.98278L191.561 8.26725L195 0Z" fill="#F1C644"/>
<path d="M195 0L198.439 8.26725L207.364 8.98278L200.564 14.8077L202.641 23.5172L195 18.85L187.359 23.5172L189.436 14.8077L182.636 8.98278L191.561 8.26725L195 0Z" stroke="#F1C644"/>
<path d="M231 0L234.439 8.26725L243.364 8.98278L236.564 14.8077L238.641 23.5172L231 18.85L223.359 23.5172L225.436 14.8077L218.636 8.98278L227.561 8.26725L231 0Z" fill="#F1C644"/>
<path d="M231 0L234.439 8.26725L243.364 8.98278L236.564 14.8077L238.641 23.5172L231 18.85L223.359 23.5172L225.436 14.8077L218.636 8.98278L227.561 8.26725L231 0Z" stroke="#F1C644"/>
<path d="M267 0L270.439 8.26725L279.364 8.98278L272.564 14.8077L274.641 23.5172L267 18.85L259.359 23.5172L261.436 14.8077L254.636 8.98278L263.561 8.26725L267 0Z" fill="#F1C644"/>
<path d="M267 0L270.439 8.26725L279.364 8.98278L272.564 14.8077L274.641 23.5172L267 18.85L259.359 23.5172L261.436 14.8077L254.636 8.98278L263.561 8.26725L267 0Z" stroke="#F1C644"/>
<path d="M303 0L306.439 8.26725L315.364 8.98278L308.564 14.8077L310.641 23.5172L303 18.85L295.359 23.5172L297.436 14.8077L290.636 8.98278L299.561 8.26725L303 0Z" fill="#F1C644"/>
<path d="M303 0L306.439 8.26725L315.364 8.98278L308.564 14.8077L310.641 23.5172L303 18.85L295.359 23.5172L297.436 14.8077L290.636 8.98278L299.561 8.26725L303 0Z" stroke="#F1C644"/>
</svg>
